name C:/MyDriveSym/Projects/mobilecap/Data\Session20210823_0002\mocap\ForceDataProcessed\walkingTS3_forces.mot
datacolumns 19
datarows 9
range 0.67450000 0.67850000
endheader 
time	R_ground_force_vx	R_ground_force_vy	R_ground_force_vz	R_ground_force_px	R_ground_force_py	R_ground_force_pz	R_ground_torque_x	R_ground_torque_y	R_ground_torque_z	L_ground_force_vx	L_ground_force_vy	L_ground_force_vz	L_ground_force_px	L_ground_force_py	L_ground_force_pz	L_ground_torque_x	L_ground_torque_y	L_ground_torque_z	
          0.67450000	         18.52548700	         63.07977000	         -3.41348000	          0.46017700	          0.00600000	         -0.07524000	          0.00000000	         -0.08410100	          0.00000000	        -63.98476200	        570.98587700	         52.20063200	          0.88205500	          0.00600000	         -0.34538400	          0.00000000	          2.53309500	          0.00000000	
          0.67500000	         18.23517100	         61.80924700	         -3.32058400	          0.46073600	          0.00600000	         -0.07524300	          0.00000000	         -0.08327700	          0.00000000	        -64.27136400	        573.16229300	         52.56276100	          0.88231400	          0.00600000	         -0.34544000	          0.00000000	          2.54029200	          0.00000000	
          0.67550000	         17.94700300	         60.55115900	         -3.22880400	          0.46130900	          0.00600000	         -0.07524500	          0.00000000	         -0.08245300	          0.00000000	        -64.55653900	        575.33481600	         52.92457600	          0.88257200	          0.00600000	         -0.34549500	          0.00000000	          2.54740800	          0.00000000	
          0.67600000	         17.66099100	         59.30548500	         -3.13813500	          0.46189700	          0.00600000	         -0.07524600	          0.00000000	         -0.08163100	          0.00000000	        -64.84026900	        577.50336100	         53.28604300	          0.88282900	          0.00600000	         -0.34555100	          0.00000000	          2.55444200	          0.00000000	
          0.67650000	         17.37714100	         58.07220100	         -3.04857100	          0.46250100	          0.00600000	         -0.07524600	          0.00000000	         -0.08081100	          0.00000000	        -65.12253600	        579.66784100	         53.64713200	          0.88308600	          0.00600000	         -0.34560600	          0.00000000	          2.56139200	          0.00000000	
          0.67700000	         17.09546000	         56.85128000	         -2.96010600	          0.46312100	          0.00600000	         -0.07524600	          0.00000000	         -0.07999300	          0.00000000	        -65.40332000	        581.82816900	         54.00780900	          0.88334200	          0.00600000	         -0.34566100	          0.00000000	          2.56826000	          0.00000000	
          0.67750000	         16.81595400	         55.64269800	         -2.87273600	          0.46375800	          0.00600000	         -0.07524400	          0.00000000	         -0.07918000	          0.00000000	        -65.68260500	        583.98425800	         54.36804300	          0.88359800	          0.00600000	         -0.34571600	          0.00000000	          2.57504300	          0.00000000	
          0.67800000	         16.53862700	         54.44642500	         -2.78645500	          0.46441300	          0.00600000	         -0.07524100	          0.00000000	         -0.07837100	          0.00000000	        -65.96037000	        586.13602000	         54.72780100	          0.88385300	          0.00600000	         -0.34577100	          0.00000000	          2.58174200	          0.00000000	
          0.67850000	         16.26348700	         53.26243100	         -2.70125700	          0.46508700	          0.00600000	         -0.07523700	          0.00000000	         -0.07756600	          0.00000000	        -66.23659900	        588.28336700	         55.08705100	          0.88410800	          0.00600000	         -0.34582500	          0.00000000	          2.58835700	          0.00000000	
